<svg version="1.1" xmlns="http://www.w3.org/2000/svg" viewBox="0 0 534.3482565522195 421.5" width="534.3482565522195" height="421.5" filter="invert(93%) hue-rotate(180deg)">
  <!-- svg-source:excalidraw -->
  
  <defs>
    <style class="style-fonts">
      @font-face {
        font-family: "Virgil";
        src: url("https://excalidraw.com/Virgil.woff2");
      }
      @font-face {
        font-family: "Cascadia";
        src: url("https://excalidraw.com/Cascadia.woff2");
      }
      @font-face {
        font-family: "Assistant";
        src: url("https://excalidraw.com/Assistant-Regular.woff2");
      }
    </style>
    
  </defs>
  <g stroke-linecap="round" transform="translate(262.1484604436905 10) rotate(0 29.5 26)"><path d="M13 0 C23.85 1.27, 33.03 -0.23, 46 0 M13 0 C20.37 -0.26, 28.59 0.78, 46 0 M46 0 C52.94 1.13, 58.63 4.55, 59 13 M46 0 C56.09 1.48, 60.47 3.71, 59 13 M59 13 C56.91 21.6, 59.82 30.06, 59 39 M59 13 C58.22 22.58, 59.07 31.03, 59 39 M59 39 C58.62 47.74, 53.66 52.96, 46 52 M59 39 C60.14 48.37, 56.37 54.08, 46 52 M46 52 C38.29 51.49, 32.33 50.08, 13 52 M46 52 C34.98 52.43, 25.53 52.24, 13 52 M13 52 C4.82 50.3, -0.45 48.5, 0 39 M13 52 C2.71 53.95, 0.08 49.31, 0 39 M0 39 C-1.92 28.79, 0.14 18.92, 0 13 M0 39 C0.94 33.32, 0.41 27.47, 0 13 M0 13 C1.38 5.17, 4.38 -0.8, 13 0 M0 13 C-0.76 3.14, 3.45 -1.76, 13 0" stroke="#1e1e1e" stroke-width="2" fill="none"></path></g><g transform="translate(285.25262695141146 23.5) rotate(0 6.395833492279053 12.5)"><text x="6.395833492279053" y="17.52" font-family="Virgil, Segoe UI Emoji" font-size="20px" fill="#1e1e1e" text-anchor="middle" style="white-space: pre;" direction="ltr" dominant-baseline="alphabetic">4</text></g><g stroke-linecap="round" transform="translate(178.5234604436905 105.125) rotate(0 32.5 30)"><path d="M46.78 3.72 C52.89 6.14, 59.25 12.05, 61.95 18.03 C64.65 24.02, 65.13 33.58, 62.98 39.65 C60.83 45.72, 54.86 51.08, 49.05 54.44 C43.24 57.79, 34.76 60.45, 28.1 59.78 C21.44 59.12, 13.86 55.27, 9.08 50.44 C4.3 45.61, -0.06 37.35, -0.59 30.79 C-1.12 24.23, 1.63 16.12, 5.91 11.07 C10.18 6.01, 17.75 1.61, 25.09 0.47 C32.43 -0.68, 45.7 3.17, 49.96 4.22 C54.21 5.28, 50.91 6.3, 50.61 6.78 M33.51 0.38 C40.06 0.52, 49.18 2.89, 54.18 7.49 C59.18 12.08, 62.65 21.34, 63.51 27.96 C64.37 34.58, 62.86 42.03, 59.34 47.2 C55.82 52.37, 48.95 57.4, 42.4 58.96 C35.85 60.52, 26.66 59.42, 20.05 56.56 C13.44 53.69, 5.91 47.3, 2.77 41.79 C-0.37 36.27, -0.69 29.5, 1.21 23.48 C3.1 17.47, 8.36 9.6, 14.13 5.7 C19.9 1.79, 32.2 1.07, 35.82 0.07 C39.45 -0.94, 36.14 -0.93, 35.89 -0.36" stroke="#1e1e1e" stroke-width="2" fill="none"></path></g><g transform="translate(204.64665656284865 122.41179656440357) rotate(0 6.395833492279053 12.5)"><text x="6.395833492279053" y="17.52" font-family="Virgil, Segoe UI Emoji" font-size="20px" fill="#1e1e1e" text-anchor="middle" style="white-space: pre;" direction="ltr" dominant-baseline="alphabetic">4</text></g><g stroke-linecap="round" transform="translate(339.7734604436905 105.125) rotate(0 32.5 30)"><path d="M22.04 2.52 C28.07 0.15, 37.47 0.18, 43.86 2.47 C50.25 4.76, 57.07 10.58, 60.39 16.25 C63.72 21.92, 65.16 30.29, 63.82 36.48 C62.47 42.67, 57.61 49.56, 52.31 53.4 C47.01 57.25, 38.95 59.63, 32.02 59.56 C25.1 59.48, 16 57.08, 10.77 52.93 C5.53 48.78, 1.48 41.03, 0.61 34.65 C-0.26 28.27, 0.93 20.32, 5.56 14.66 C10.2 9, 23.69 3.1, 28.44 0.72 C33.18 -1.66, 34.07 -0.21, 34.02 0.36 M21.83 1.94 C27.9 0, 37.34 1.34, 43.92 3.5 C50.5 5.66, 57.94 9.63, 61.32 14.92 C64.7 20.22, 65.64 28.71, 64.2 35.28 C62.76 41.86, 58.32 50.42, 52.67 54.38 C47.02 58.34, 37.26 59.4, 30.3 59.05 C23.34 58.69, 15.81 56.22, 10.9 52.26 C5.98 48.29, 1.99 41.44, 0.81 35.27 C-0.36 29.11, 0 21.12, 3.86 15.26 C7.72 9.41, 20.67 2.16, 24 0.13 C27.32 -1.91, 23.84 2.32, 23.8 3.06" stroke="#1e1e1e" stroke-width="2" fill="none"></path></g><g transform="translate(365.46957354740675 122.41179656440357) rotate(0 6.822916507720947 12.5)"><text x="6.822916507720947" y="17.52" font-family="Virgil, Segoe UI Emoji" font-size="20px" fill="#1e1e1e" text-anchor="middle" style="white-space: pre;" direction="ltr" dominant-baseline="alphabetic">-1</text></g><g stroke-linecap="round" transform="translate(285.94012711035725 223.5) rotate(0 29.5 26)"><path d="M13 0 C24.28 -1.49, 37.99 -0.07, 46 0 M13 0 C25.41 -0.48, 35.65 -0.33, 46 0 M46 0 C56.5 1.78, 57.8 3.88, 59 13 M46 0 C52.6 -1.66, 59.42 5.35, 59 13 M59 13 C57.54 19.94, 59.16 28.8, 59 39 M59 13 C58.96 22.04, 58.9 30.25, 59 39 M59 39 C60.68 47.59, 52.86 50.56, 46 52 M59 39 C59.85 46.44, 53.78 52.79, 46 52 M46 52 C40.35 53, 31.64 52.87, 13 52 M46 52 C33.35 52.22, 21.58 52.49, 13 52 M13 52 C2.81 53.37, 1.9 46.75, 0 39 M13 52 C5.55 52.75, -0.53 47.86, 0 39 M0 39 C-1.45 27.83, 1.57 17.47, 0 13 M0 39 C0.46 28.77, 0.55 18.41, 0 13 M0 13 C0.18 5.32, 2.99 -0.88, 13 0 M0 13 C-0.72 5.61, 6.26 -1.74, 13 0" stroke="#1e1e1e" stroke-width="2" fill="none"></path></g><g transform="translate(310.06512711035725 237) rotate(0 5.375 12.5)"><text x="5.375" y="17.52" font-family="Virgil, Segoe UI Emoji" font-size="20px" fill="#1e1e1e" text-anchor="middle" style="white-space: pre;" direction="ltr" dominant-baseline="alphabetic">7</text></g><g stroke-linecap="round" transform="translate(230.85679377702388 349.5) rotate(0 32.5 30)"><path d="M45.69 3.58 C52.09 5.73, 59.67 10.91, 62.68 16.41 C65.7 21.9, 65.76 30.17, 63.76 36.53 C61.77 42.89, 56.27 50.64, 50.73 54.56 C45.18 58.47, 37.35 60.54, 30.49 60.01 C23.62 59.47, 14.7 55.94, 9.53 51.34 C4.36 46.74, 0.09 38.81, -0.54 32.41 C-1.16 26.01, 1.69 18.05, 5.78 12.93 C9.86 7.81, 16.13 2.79, 23.98 1.69 C31.83 0.59, 47.13 4.64, 52.87 6.36 C58.62 8.07, 58.76 11.42, 58.46 11.98 M32.46 -0.79 C39.2 -1.02, 47.23 2.87, 52.35 7.18 C57.48 11.49, 61.72 18.65, 63.19 25.08 C64.66 31.5, 64.21 40.22, 61.16 45.72 C58.11 51.22, 51.32 55.78, 44.88 58.1 C38.45 60.41, 29.08 61.9, 22.56 59.6 C16.03 57.31, 9.43 49.94, 5.73 44.35 C2.03 38.75, -0.76 32.01, 0.34 26.03 C1.44 20.05, 7.28 12.64, 12.36 8.48 C17.43 4.31, 27.27 2.46, 30.77 1.04 C34.26 -0.39, 33.01 -0.49, 33.35 -0.08" stroke="#1e1e1e" stroke-width="2" fill="none"></path></g><g transform="translate(256.5633233884611 366.7867965644035) rotate(0 6.8125 12.5)"><text x="6.8125" y="17.52" font-family="Virgil, Segoe UI Emoji" font-size="20px" fill="#1e1e1e" text-anchor="middle" style="white-space: pre;" direction="ltr" dominant-baseline="alphabetic">3</text></g><g stroke-linecap="round" transform="translate(335.0234604436905 349.5) rotate(0 32.5 30)"><path d="M25.85 0.22 C32.19 -1.87, 40.86 -0.73, 46.82 2.27 C52.78 5.28, 58.72 12.2, 61.6 18.26 C64.48 24.33, 66 32.55, 64.09 38.66 C62.18 44.77, 56.14 51.49, 50.14 54.92 C44.14 58.35, 34.93 59.99, 28.08 59.25 C21.22 58.51, 13.63 54.95, 9.01 50.47 C4.38 45.99, 0.73 38.79, 0.31 32.36 C-0.1 25.94, 1.6 17.34, 6.51 11.93 C11.42 6.52, 25.21 1.65, 29.75 -0.09 C34.29 -1.84, 33.8 1.06, 33.75 1.45 M20.44 2.45 C26.19 0.2, 35.34 0.27, 42.04 2.52 C48.75 4.76, 56.8 10.48, 60.67 15.89 C64.55 21.3, 66.34 28.61, 65.28 34.95 C64.22 41.3, 59.52 49.99, 54.3 53.98 C49.08 57.97, 41.04 58.88, 33.96 58.87 C26.89 58.86, 17.22 57.61, 11.85 53.91 C6.49 50.21, 3.23 42.93, 1.76 36.66 C0.29 30.4, -0.43 22.24, 3.02 16.34 C6.47 10.44, 19.28 3.47, 22.45 1.25 C25.62 -0.98, 22.15 2.38, 22.04 2.98" stroke="#1e1e1e" stroke-width="2" fill="none"></path></g><g transform="translate(362.1674900551277 366.78679656440363) rotate(0 5.375 12.5)"><text x="5.375" y="17.52" font-family="Virgil, Segoe UI Emoji" font-size="20px" fill="#1e1e1e" text-anchor="middle" style="white-space: pre;" direction="ltr" dominant-baseline="alphabetic">7</text></g><g stroke-linecap="round" transform="translate(77.10679377702388 223.5) rotate(0 29.5 26)"><path d="M13 0 C22.21 1.56, 31.89 -1.13, 46 0 M13 0 C20.86 -0.87, 29.31 -0.97, 46 0 M46 0 C55.99 1.91, 59.81 4.67, 59 13 M46 0 C55.72 0.9, 58.12 2.05, 59 13 M59 13 C58.89 20.1, 57.08 27.36, 59 39 M59 13 C58.68 20.38, 58.4 27.15, 59 39 M59 39 C60.87 49.01, 56.05 50.46, 46 52 M59 39 C58.45 45.84, 53.73 49.73, 46 52 M46 52 C34.37 51.09, 25.54 52.87, 13 52 M46 52 C33.9 51.23, 22.39 51.28, 13 52 M13 52 C2.46 52.43, -1.3 46.91, 0 39 M13 52 C2.93 50.46, -0.61 47.2, 0 39 M0 39 C-0.32 30.8, 0.6 23.13, 0 13 M0 39 C0.44 30.17, -0.87 19.15, 0 13 M0 13 C0.88 4.41, 4.79 1.35, 13 0 M0 13 C-0.52 2.7, 4.84 1.03, 13 0" stroke="#1e1e1e" stroke-width="2" fill="none"></path></g><g transform="translate(100.21096028474483 237) rotate(0 6.395833492279053 12.5)"><text x="6.395833492279053" y="17.52" font-family="Virgil, Segoe UI Emoji" font-size="20px" fill="#1e1e1e" text-anchor="middle" style="white-space: pre;" direction="ltr" dominant-baseline="alphabetic">4</text></g><g stroke-linecap="round" transform="translate(18.52346044369051 351.5) rotate(0 32.5 30)"><path d="M28.84 0.76 C35.7 -0.1, 46.32 2.22, 52.2 5.89 C58.07 9.57, 62.41 16.72, 64.09 22.8 C65.77 28.88, 65.45 36.7, 62.29 42.4 C59.13 48.1, 51.63 54.23, 45.13 56.99 C38.64 59.75, 29.88 60.59, 23.33 58.94 C16.78 57.29, 9.85 52.36, 5.84 47.09 C1.82 41.81, -1.3 33.62, -0.74 27.29 C-0.19 20.97, 3.25 13.72, 9.15 9.12 C15.05 4.52, 29.28 1.07, 34.66 -0.31 C40.04 -1.68, 41.2 0.15, 41.42 0.87 M42.86 0.49 C48.97 2.09, 56.18 7.43, 59.82 13.18 C63.47 18.93, 65.53 28.57, 64.73 34.99 C63.93 41.41, 60.47 47.51, 55.02 51.68 C49.57 55.85, 39.13 59.61, 32.02 60 C24.91 60.38, 17.74 58.24, 12.37 54.01 C7 49.77, 1.31 41.2, -0.19 34.61 C-1.68 28.03, -0.02 20.07, 3.41 14.5 C6.84 8.93, 14 3.27, 20.4 1.18 C26.8 -0.9, 38.21 1.92, 41.81 2 C45.42 2.08, 42.13 1.43, 42.03 1.68" stroke="#1e1e1e" stroke-width="2" fill="none"></path></g><g transform="translate(44.64665656284865 368.78679656440363) rotate(0 6.395833492279053 12.5)"><text x="6.395833492279053" y="17.52" font-family="Virgil, Segoe UI Emoji" font-size="20px" fill="#1e1e1e" text-anchor="middle" style="white-space: pre;" direction="ltr" dominant-baseline="alphabetic">4</text></g><g stroke-linecap="round" transform="translate(129.69012711035725 351.5) rotate(0 32.5 30)"><path d="M37.54 0.64 C44.34 1, 51.89 5.5, 56.52 10.08 C61.16 14.67, 65.21 21.86, 65.35 28.17 C65.5 34.47, 61.77 42.72, 57.39 47.9 C53 53.08, 45.67 57.79, 39.04 59.25 C32.42 60.71, 23.89 59.58, 17.66 56.65 C11.43 53.71, 4.43 47.49, 1.66 41.63 C-1.12 35.78, -1.09 27.75, 1.01 21.53 C3.1 15.32, 7.89 7.98, 14.21 4.35 C20.53 0.72, 34.55 0.1, 38.93 -0.25 C43.31 -0.59, 40.61 1.55, 40.51 2.28 M19.68 0.71 C25.74 -1.71, 35.71 -0.43, 42.66 1.62 C49.6 3.67, 57.83 7.6, 61.35 13.02 C64.87 18.44, 64.9 27.47, 63.79 34.14 C62.68 40.81, 59.86 48.9, 54.71 53.05 C49.57 57.19, 40.07 59.04, 32.91 59 C25.76 58.97, 17.24 56.74, 11.78 52.82 C6.32 48.91, 1.69 41.6, 0.13 35.51 C-1.44 29.42, -0.82 21.91, 2.38 16.27 C5.58 10.62, 16.44 4.05, 19.32 1.63 C22.19 -0.79, 19.32 1.24, 19.62 1.75" stroke="#1e1e1e" stroke-width="2" fill="none"></path></g><g transform="translate(150.96957370635255 368.7867965644035) rotate(0 11.239583015441895 12.5)"><text x="11.239583015441895" y="17.52" font-family="Virgil, Segoe UI Emoji" font-size="20px" fill="#1e1e1e" text-anchor="middle" style="white-space: pre;" direction="ltr" dominant-baseline="alphabetic">-2</text></g><g stroke-linecap="round"><g transform="translate(105.27346044369051 272.5) rotate(0 -23 39)"><path d="M1.04 0.84 C-6.78 13.85, -39.28 64.84, -47.03 77.68 M0.13 0.24 C-7.32 13.46, -37.19 65.91, -44.86 79.05" stroke="#1e1e1e" stroke-width="2" fill="none"></path></g><g transform="translate(105.27346044369051 272.5) rotate(0 -23 39)"><path d="M-40.55 54.43 C-40.47 59.89, -43.65 69.71, -44.86 79.05 M-40.55 54.43 C-41.08 61.01, -43.5 69.17, -44.86 79.05" stroke="#1e1e1e" stroke-width="2" fill="none"></path></g><g transform="translate(105.27346044369051 272.5) rotate(0 -23 39)"><path d="M-25.73 62.95 C-29.92 66.07, -37.4 73.42, -44.86 79.05 M-25.73 62.95 C-30.46 66.97, -37.16 72.66, -44.86 79.05" stroke="#1e1e1e" stroke-width="2" fill="none"></path></g></g><mask></mask><g stroke-linecap="round"><g transform="translate(103.27346044369051 272.5) rotate(0 29 39.5)"><path d="M-1.16 1.1 C8.38 14.19, 46.98 65.33, 56.95 78.13 M0.43 0.63 C10.36 13.88, 49.48 66.2, 59.11 79.21" stroke="#1e1e1e" stroke-width="2" fill="none"></path></g><g transform="translate(103.27346044369051 272.5) rotate(0 29 39.5)"><path d="M38.22 65.48 C45.74 67.7, 48.18 74.28, 59.11 79.21 M38.22 65.48 C43.64 68.26, 47.34 72.45, 59.11 79.21" stroke="#1e1e1e" stroke-width="2" fill="none"></path></g><g transform="translate(103.27346044369051 272.5) rotate(0 29 39.5)"><path d="M51.94 55.27 C55.66 60.15, 54.35 69.53, 59.11 79.21 M51.94 55.27 C54.49 60.1, 55.28 66.45, 59.11 79.21" stroke="#1e1e1e" stroke-width="2" fill="none"></path></g></g><mask></mask><g stroke-linecap="round"><g transform="translate(315.2734604436905 274.5) rotate(0 -24 38)"><path d="M0.61 -0.92 C-7.2 11.7, -39.84 63, -47.97 75.69 M-0.52 1.21 C-8.4 14.02, -40.82 64.58, -48.9 77.06" stroke="#1e1e1e" stroke-width="2" fill="none"></path></g><g transform="translate(315.2734604436905 274.5) rotate(0 -24 38)"><path d="M-43.38 52.68 C-46.1 57.89, -46.24 62.72, -48.9 77.06 M-43.38 52.68 C-44.3 58.28, -45.9 64.18, -48.9 77.06" stroke="#1e1e1e" stroke-width="2" fill="none"></path></g><g transform="translate(315.2734604436905 274.5) rotate(0 -24 38)"><path d="M-29 61.93 C-34.74 65.27, -37.91 68.14, -48.9 77.06 M-29 61.93 C-33.28 65.4, -38.23 69.14, -48.9 77.06" stroke="#1e1e1e" stroke-width="2" fill="none"></path></g></g><mask></mask><g stroke-linecap="round"><g transform="translate(313.2734604436905 274.5) rotate(0 28 37.5)"><path d="M1.01 -0.57 C10.36 12.01, 46.87 62.54, 55.97 75.04 M0.08 1.75 C9.28 14.57, 45.92 64.32, 55.01 76.6" stroke="#1e1e1e" stroke-width="2" fill="none"></path></g><g transform="translate(313.2734604436905 274.5) rotate(0 28 37.5)"><path d="M34.18 62.77 C39.22 66.55, 46.25 69.9, 55.01 76.6 M34.18 62.77 C39.56 66.95, 44.97 69.24, 55.01 76.6" stroke="#1e1e1e" stroke-width="2" fill="none"></path></g><g transform="translate(313.2734604436905 274.5) rotate(0 28 37.5)"><path d="M47.95 52.62 C48.96 59.45, 52.02 65.73, 55.01 76.6 M47.95 52.62 C49.91 59.39, 51.82 64.25, 55.01 76.6" stroke="#1e1e1e" stroke-width="2" fill="none"></path></g></g><mask></mask><g stroke-linecap="round"><g transform="translate(204.05282716857892 165.4464753199589) rotate(0 -48.732299796813834 28.526762340020554)"><path d="M-0.6 0.96 C-16.77 10.55, -81.92 47.23, -98.08 56.77 M1.29 0.42 C-14.39 10.26, -79.08 48.81, -95.69 58.16" stroke="#1e1e1e" stroke-width="2" fill="none"></path></g><g transform="translate(204.05282716857892 165.4464753199589) rotate(0 -48.732299796813834 28.526762340020554)"><path d="M-79.69 38.95 C-81.57 41.88, -86.99 46.77, -95.69 58.16 M-79.69 38.95 C-85.31 46.36, -91.66 54.1, -95.69 58.16" stroke="#1e1e1e" stroke-width="2" fill="none"></path></g><g transform="translate(204.05282716857892 165.4464753199589) rotate(0 -48.732299796813834 28.526762340020554)"><path d="M-71.09 53.73 C-74.67 53.52, -81.9 55.31, -95.69 58.16 M-71.09 53.73 C-80.2 55.3, -89.98 57.15, -95.69 58.16" stroke="#1e1e1e" stroke-width="2" fill="none"></path></g></g><mask></mask><g stroke-linecap="round"><g transform="translate(212.45600147909204 166.09664335127593) rotate(0 52.268342110175354 28.201678324362035)"><path d="M-0.34 -1.16 C16.89 8.36, 86.98 47.41, 104.47 56.88 M1.68 0.84 C18.65 10.02, 86.46 45.72, 103.49 55.01" stroke="#1e1e1e" stroke-width="2" fill="none"></path></g><g transform="translate(212.45600147909204 166.09664335127593) rotate(0 52.268342110175354 28.201678324362035)"><path d="M78.75 51.47 C86.41 52.82, 98.77 54.39, 103.49 55.01 M78.75 51.47 C85.49 52.04, 91.05 53.1, 103.49 55.01" stroke="#1e1e1e" stroke-width="2" fill="none"></path></g><g transform="translate(212.45600147909204 166.09664335127593) rotate(0 52.268342110175354 28.201678324362035)"><path d="M86.81 36.39 C91.31 43.57, 100.53 51, 103.49 55.01 M86.81 36.39 C91.65 40.46, 95.29 45.1, 103.49 55.01" stroke="#1e1e1e" stroke-width="2" fill="none"></path></g></g><mask></mask><g stroke-linecap="round"><g transform="translate(287.359689192823 63) rotate(0 -35.83975138308563 20.712982770030607)"><path d="M0.94 -0.74 C-11.05 6.14, -59.8 33.85, -72.07 40.95 M-0.02 1.49 C-12.2 8.56, -61.5 35.86, -73.22 42.23" stroke="#1e1e1e" stroke-width="2" fill="none"></path></g><g transform="translate(287.359689192823 63) rotate(0 -35.83975138308563 20.712982770030607)"><path d="M-56.75 23.42 C-62.88 28.44, -67.29 32.96, -73.22 42.23 M-56.75 23.42 C-63.08 28.96, -67.19 35.68, -73.22 42.23" stroke="#1e1e1e" stroke-width="2" fill="none"></path></g><g transform="translate(287.359689192823 63) rotate(0 -35.83975138308563 20.712982770030607)"><path d="M-48.51 38.4 C-57.02 39.08, -63.85 39.19, -73.22 42.23 M-48.51 38.4 C-57.62 38.97, -64.49 40.67, -73.22 42.23" stroke="#1e1e1e" stroke-width="2" fill="none"></path></g></g><mask></mask><g stroke-linecap="round"><g transform="translate(291.5417575682483 63) rotate(0 35.93547215089535 21.11452296594024)"><path d="M-0.63 0.25 C11.24 7.41, 58.66 35.98, 70.69 43.03 M1.24 -0.66 C13.51 6.16, 61.22 33.88, 72.79 41.33" stroke="#1e1e1e" stroke-width="2" fill="none"></path></g><g transform="translate(291.5417575682483 63) rotate(0 35.93547215089535 21.11452296594024)"><path d="M48.27 36.45 C54.89 35.85, 62.02 38.53, 72.79 41.33 M48.27 36.45 C56.2 38.76, 64.41 40.67, 72.79 41.33" stroke="#1e1e1e" stroke-width="2" fill="none"></path></g><g transform="translate(291.5417575682483 63) rotate(0 35.93547215089535 21.11452296594024)"><path d="M57.14 21.83 C61.53 24.88, 66.41 31.26, 72.79 41.33 M57.14 21.83 C62.1 28.85, 67.41 35.54, 72.79 41.33" stroke="#1e1e1e" stroke-width="2" fill="none"></path></g></g><mask></mask><g stroke-linecap="round"><g transform="translate(9.528947885706998 74.5) rotate(0 250.50000000000006 -2)"><path d="M0.47 0.56 C84.12 0.15, 417.73 -2.26, 501.07 -3.12" stroke="#1e1e1e" stroke-width="2.5" fill="none" stroke-dasharray="8 10"></path></g></g><mask></mask><g stroke-linecap="round"><g transform="translate(9.837973807379626 195.16488246053535) rotate(0 253.49999999999994 -1.5)"><path d="M0.16 -0.43 C84.69 -1.24, 422.13 -3.51, 506.79 -3.77" stroke="#1e1e1e" stroke-width="2.5" fill="none" stroke-dasharray="8 10"></path></g></g><mask></mask><g stroke-linecap="round"><g transform="translate(9.331001897528722 309.2739374697684) rotate(0 257 -0.5)"><path d="M0.67 -1.19 C86.31 -1.22, 429.31 -1.29, 515.02 -1.1" stroke="#1e1e1e" stroke-width="2.5" fill="none" stroke-dasharray="8 10"></path></g></g><mask></mask></svg>